<svg width="32" height="32" viewBox="0 0 32 32" fill="none" xmlns="http://www.w3.org/2000/svg">
<g clip-path="url(#clip0_605_7283)">
<path d="M16 32C24.8366 32 32 24.8366 32 16C32 7.16344 24.8366 0 16 0C7.16344 0 0 7.16344 0 16C0 24.8366 7.16344 32 16 32Z" fill="#6D758F"/>
<path d="M16 15C18.7614 15 21 12.7614 21 10C21 7.23858 18.7614 5 16 5C13.2386 5 11 7.23858 11 10C11 12.7614 13.2386 15 16 15Z" fill="white"/>
<path d="M16 28C20.9706 28 25 25.5376 25 22.5C25 19.4624 20.9706 17 16 17C11.0294 17 7 19.4624 7 22.5C7 25.5376 11.0294 28 16 28Z" fill="white"/>
</g>
<defs>
<clipPath id="clip0_605_7283">
<rect width="32" height="32" fill="white"/>
</clipPath>
</defs>
</svg>
