<svg width="240" height="36" viewBox="0 0 240 36" fill="none" xmlns="http://www.w3.org/2000/svg">
<circle cx="17.9776" cy="17.9776" r="17.9776" fill="#4DAAFF"/>
<path d="M14.3088 27.3663C15.9828 30.1574 19.9873 30.1529 21.6477 27.3663C22.185 26.2158 23.0165 23.4158 24.3738 21.1911C26.3371 17.9731 28.0008 16.6068 28.3738 15.8922C30.0327 13.0578 27.9781 9.49219 24.694 9.49219C23.6592 9.49219 22.4008 10.2787 17.9603 10.3956C14.2479 10.3956 12.2794 9.49219 11.2626 9.49219C7.97844 9.49219 5.90632 12.9708 7.58276 15.8877C9.57378 18.4585 10.2535 18.955 11.5648 21.1956C12.9625 23.3394 13.5603 25.9012 14.3088 27.3663Z" fill="white"/>
<path d="M61.8183 5.88922C59.3348 5.88922 57.0673 6.78949 55.2677 8.69806L54.9561 6.77092C54.9075 6.47028 54.648 6.24933 54.3436 6.24933H50.9571C50.6144 6.24933 50.3367 6.52723 50.3367 6.87004V26.6589C50.3367 27.0017 50.6144 27.2796 50.9571 27.2796H55.0792C55.4218 27.2796 55.6996 27.0017 55.6996 26.6589V17.1966C55.6996 13.2354 57.4272 11.0748 60.6666 11.0748C63.654 11.0748 65.2017 12.8033 65.2017 16.1883V26.6589C65.2017 27.0017 65.4794 27.2796 65.8221 27.2796H69.9442C70.2868 27.2796 70.5646 27.0017 70.5646 26.6589V14.8919C70.5646 9.31025 67.2532 5.88922 61.8183 5.88922Z" fill="white"/>
<path d="M93.1382 8.73407C91.5545 7.07758 89.287 5.88922 86.5875 5.88922C80.8647 5.88922 76.1856 10.6066 76.1856 16.7645C76.1856 22.8863 80.8647 27.6398 86.5875 27.6398C89.287 27.6398 91.5545 26.4514 93.1382 24.7949L93.4508 26.7567C93.4988 27.0579 93.7585 27.2796 94.0634 27.2796H97.4848C97.8274 27.2796 98.1052 27.0017 98.1052 26.6589V6.87003C98.1052 6.52723 97.8274 6.24933 97.4848 6.24933H94.0634C93.7585 6.24933 93.4988 6.47104 93.4508 6.77232L93.1382 8.73407ZM87.1994 22.3822C84.032 22.3822 81.6205 20.0055 81.6205 16.7645C81.6205 13.5235 84.032 11.1468 87.1994 11.1468C90.3667 11.1468 92.7783 13.5235 92.7783 16.7645C92.7783 19.9694 90.3667 22.3822 87.1994 22.3822Z" fill="white"/>
<path d="M116.631 5.88922C113.931 5.88922 111.628 7.11359 110.044 8.73407L109.731 6.77232C109.683 6.47104 109.424 6.24933 109.119 6.24933H105.733C105.391 6.24933 105.113 6.52723 105.113 6.87004V33.3569C105.113 33.6998 105.391 33.9777 105.733 33.9777H109.856C110.198 33.9777 110.476 33.6998 110.476 33.3569V25.119C112.024 26.6315 114.147 27.6398 116.631 27.6398C122.318 27.6398 127.033 22.9223 127.033 16.7645C127.033 10.6426 122.354 5.88922 116.631 5.88922ZM115.983 22.3822C112.851 22.3822 110.44 20.0055 110.44 16.7645C110.44 13.5595 112.815 11.1468 115.983 11.1468C119.15 11.1468 121.562 13.5235 121.562 16.7645C121.562 20.0055 119.15 22.3822 115.983 22.3822Z" fill="white"/>
<path d="M144.046 6.06927C141.491 6.06927 139.367 7.18561 137.784 8.95014L137.435 6.77197C137.387 6.47085 137.128 6.24933 136.823 6.24933H133.473C133.131 6.24933 132.853 6.52723 132.853 6.87004V26.6589C132.853 27.0017 133.131 27.2796 133.473 27.2796H137.595C137.938 27.2796 138.216 27.0017 138.216 26.6589V16.6204C138.216 13.4875 139.943 11.4349 143.363 11.4349C143.759 11.4349 144.186 11.4651 144.623 11.5158C145.002 11.5597 145.342 11.2699 145.342 10.8885V6.70312C145.342 6.3997 145.123 6.138 144.821 6.10791C144.563 6.08215 144.305 6.06927 144.046 6.06927Z" fill="white"/>
<path d="M159.487 27.6398C165.678 27.6398 170.537 22.8863 170.537 16.7645C170.537 10.6426 165.678 5.88922 159.487 5.88922C153.332 5.88922 148.473 10.6066 148.473 16.7645C148.473 22.8863 153.296 27.6398 159.487 27.6398ZM159.487 22.3822C156.32 22.3822 153.908 20.0055 153.908 16.7645C153.908 13.5235 156.32 11.1468 159.487 11.1468C162.654 11.1468 165.066 13.5235 165.066 16.7645C165.066 19.9694 162.69 22.3822 159.487 22.3822Z" fill="white"/>
<path d="M186.387 27.6398C189.298 27.6398 191.96 26.5818 193.94 24.7551C194.189 24.5247 194.184 24.1346 193.943 23.8955L191.008 20.9871C190.763 20.7441 190.368 20.7508 190.106 20.9755C189.04 21.8894 187.768 22.3822 186.387 22.3822C183.112 22.3822 180.629 20.0055 180.629 16.7645C180.629 13.5235 183.112 11.1468 186.387 11.1468C187.794 11.1468 189.037 11.6625 190.07 12.5526C190.332 12.778 190.727 12.7848 190.972 12.5416L193.906 9.6336C194.148 9.39448 194.153 9.0042 193.904 8.77349C191.899 6.91836 189.268 5.88922 186.387 5.88922C180.053 5.88922 175.194 10.6066 175.194 16.7645C175.194 22.9223 180.053 27.6398 186.387 27.6398Z" fill="white"/>
<path d="M215.106 8.73407C213.522 7.07758 211.254 5.88922 208.555 5.88922C202.832 5.88922 198.153 10.6066 198.153 16.7645C198.153 22.8863 202.832 27.6398 208.555 27.6398C211.254 27.6398 213.522 26.4514 215.106 24.7949L215.418 26.7566C215.466 27.0579 215.726 27.2796 216.031 27.2796H219.452C219.795 27.2796 220.073 27.0017 220.073 26.6589V6.87003C220.073 6.52723 219.795 6.24933 219.452 6.24933H216.031C215.726 6.24933 215.466 6.47104 215.418 6.77232L215.106 8.73407ZM209.167 22.3822C205.999 22.3822 203.588 20.0055 203.588 16.7645C203.588 13.5235 205.999 11.1468 209.167 11.1468C212.334 11.1468 214.746 13.5235 214.746 16.7645C214.746 19.9694 212.334 22.3822 209.167 22.3822Z" fill="white"/>
<path d="M238.164 22.5381C237.976 22.2094 237.544 22.1347 237.213 22.3189C236.741 22.5813 236.238 22.7063 235.503 22.7063C234.063 22.7063 233.235 21.806 233.235 20.2935V11.1828H238.23C238.572 11.1828 238.85 10.9049 238.85 10.5621V6.87004C238.85 6.52723 238.572 6.24933 238.23 6.24933H233.271V2.59842C233.271 2.2116 232.921 1.91901 232.541 1.98753L228.383 2.73636C228.087 2.78958 227.872 3.04686 227.872 3.34725V6.24933H225.469C225.127 6.24933 224.849 6.52723 224.849 6.87004V10.5621C224.849 10.9049 225.127 11.1828 225.469 11.1828H227.872L227.836 20.6176C227.836 24.975 230.464 27.6398 234.891 27.6398C236.855 27.6398 238.502 27.2076 239.755 26.3689C240.009 26.1992 240.07 25.8603 239.918 25.5955L238.164 22.5381Z" fill="white"/>
</svg>
