<svg width="50" height="38" viewBox="0 0 50 38" fill="none" xmlns="http://www.w3.org/2000/svg">
<g clip-path="url(#clip0_6391_10097)">
<mask id="mask0_6391_10097" style="mask-type:luminance" maskUnits="userSpaceOnUse" x="0" y="9" width="375" height="133">
<path d="M0.00579834 9.71289H374.938V141.269H0.00579834V9.71289Z" fill="white"/>
</mask>
<g mask="url(#mask0_6391_10097)">
<path d="M6.50793 22.507C9.98348 22.507 13.0105 19.9704 13.0105 16.1318C13.0105 12.2953 9.98348 9.75684 6.50793 9.75684C3.03227 9.75684 0.00494385 12.2952 0.00494385 16.1318C0.00494385 19.9704 3.03227 22.507 6.50793 22.507ZM6.50793 20.3156C4.17775 20.3156 2.4477 18.4538 2.4477 16.1318C2.4477 13.8099 4.17775 11.948 6.50793 11.948C8.83823 11.948 10.5689 13.8098 10.5689 16.1318C10.5689 18.4538 8.83823 20.3156 6.50793 20.3156Z" fill="#F9B214"/>
<path d="M7.83196 15.4762C7.75295 15.1047 7.61903 14.8204 7.43033 14.6236C7.23332 14.4181 6.93343 14.3153 6.53157 14.3153C6.2687 14.3153 6.05024 14.3577 5.8763 14.4418C5.70224 14.5264 5.56314 14.6311 5.45887 14.7559C5.35425 14.8808 5.28089 15.0128 5.23833 15.1521C5.19588 15.2918 5.17051 15.4168 5.16313 15.5267H7.84222L7.83196 15.4762ZM5.56925 17.6191C5.8162 17.8468 6.17227 17.9604 6.63607 17.9604C6.96838 17.9604 7.25466 17.8817 7.49446 17.7237C7.73403 17.566 7.72745 17.3989 7.78167 17.2224H9.38472C9.15276 17.9052 8.79693 18.3937 8.31767 18.6873C7.83819 18.9809 7.25847 19.1278 6.57828 19.1278C6.10664 19.1278 5.68137 19.0561 5.30246 18.9126C4.92356 18.7695 4.60255 18.5658 4.34003 18.3015C4.07704 18.0375 3.87404 17.7218 3.7309 17.3545C3.58787 16.9876 3.51636 16.5838 3.51636 16.1431C3.51636 15.7175 3.58972 15.321 3.73701 14.9538C3.8835 14.5865 4.09227 14.2691 4.3631 14.0011C4.63358 13.7331 4.95666 13.5221 5.33164 13.368C5.7064 13.2138 6.12198 13.1366 6.57828 13.1366C7.08856 13.1366 7.53287 13.2302 7.91166 13.4174C8.29057 13.6047 8.60199 13.8562 8.84537 14.1719C9.08898 14.4877 9.26465 14.8473 9.37342 15.251C9.48138 15.6548 9.51967 16.0772 9.48899 16.5175H5.16336C5.18654 17.0242 5.32172 17.3915 5.56937 17.6189M19.2949 12.6176C18.3521 12.7443 17.4808 13.294 16.9496 14.0827C16.3345 14.9709 16.1741 16.1424 16.4808 17.1729C16.7087 17.9543 17.2087 18.6578 17.8909 19.104C18.6575 19.6182 19.6357 19.7968 20.5355 19.5999C21.4579 19.4092 22.2852 18.8124 22.766 18.0026C23.2501 17.2056 23.3773 16.2146 23.1645 15.3108C22.9706 14.4308 22.4245 13.6339 21.6681 13.1441C20.9769 12.6836 20.1145 12.512 19.2949 12.6176ZM16.4494 11.5345C17.3428 10.8726 18.4391 10.4926 19.5498 10.4529C20.9866 10.3801 22.4504 10.8705 23.5366 11.82C24.573 12.7144 25.2534 14.0064 25.4248 15.3645C25.6248 16.7909 25.2641 18.2885 24.4216 19.4574C23.5986 20.6249 22.3251 21.477 20.9164 21.7344C19.7302 21.9532 18.4603 21.766 17.4168 21.1487C17.0026 20.9131 16.6298 20.6126 16.2794 20.2912C16.2775 22.551 16.2788 24.8113 16.2788 27.0711C15.5632 27.0683 14.8476 27.0652 14.1321 27.0732C14.1368 23.6356 14.1321 20.1979 14.1347 16.7601C14.1382 15.9904 14.1886 15.2127 14.3955 14.4681C14.726 13.2965 15.462 12.2457 16.4495 11.5344M31.3522 12.6611C30.3768 12.8703 29.5156 13.533 29.0557 14.4185C28.5579 15.3495 28.5436 16.4905 28.8946 17.4739C29.1802 18.2858 29.7924 18.9779 30.5719 19.3451C31.3468 19.704 32.25 19.7769 33.0717 19.5431C33.8347 19.3184 34.5129 18.815 34.9464 18.1455C35.5428 17.241 35.6986 16.0626 35.375 15.0294C35.079 14.0777 34.3593 13.2639 33.4417 12.8721C32.79 12.5841 32.048 12.5159 31.3521 12.661L31.3522 12.6611ZM27.8763 12.3608C28.8307 11.2798 30.204 10.5592 31.6488 10.4604C33.6936 10.2977 35.7788 11.3853 36.8265 13.1495C37.4769 14.2686 37.8631 15.5116 38.3154 16.7172C38.8909 18.2995 39.4725 19.8789 40.0466 21.4613C39.2678 21.4613 38.4882 21.4607 37.7093 21.4619C37.404 20.6096 37.0964 19.7582 36.7864 18.9077C36.1858 20.0316 35.2403 21.0007 34.0343 21.4558C33.0902 21.8358 32.0339 21.9075 31.0365 21.7229C29.7768 21.4925 28.611 20.8018 27.7913 19.819C26.8546 18.7149 26.3731 17.2463 26.4465 15.8017C26.5042 14.5334 27.0356 13.3053 27.8763 12.3606" fill="white"/>
<path d="M40.5371 10.828C41.2492 10.7746 41.9675 10.8191 42.6824 10.8048C42.6865 12.7902 42.6783 14.7757 42.6865 16.7612C42.6824 17.4526 42.7961 18.18 43.2069 18.7542C43.5727 19.2672 44.1733 19.5778 44.7917 19.6534C45.5699 19.744 46.4326 19.5472 46.9664 18.9388C47.5609 18.2779 47.7112 17.3484 47.7221 16.4881C47.7268 14.5925 47.7235 12.6969 47.7235 10.8014C48.4391 10.8048 49.1553 10.8116 49.8709 10.7979C49.8626 13.7615 49.8695 16.7258 49.8673 19.6894C49.87 21.0572 49.8209 22.4754 49.2518 23.7422C48.513 25.3136 47.0561 26.5044 45.4005 26.9911C43.3252 27.6558 40.922 27.0401 39.3873 25.5009C39.1126 25.2598 38.9052 24.9573 38.6644 24.6855C39.2172 24.2196 39.7915 23.7787 40.3416 23.3088C40.9879 24.1493 41.8668 24.8897 42.9434 25.0573C44.8332 25.4039 46.8521 24.1998 47.467 22.3811C47.6846 21.8315 47.726 21.2355 47.7539 20.651C47.1153 21.2559 46.2957 21.6747 45.4202 21.7842C44.0958 21.9634 42.6968 21.4995 41.7559 20.5466C41.2459 20.0435 40.9049 19.3833 40.7431 18.6885C40.5385 17.8814 40.5472 17.0423 40.541 16.2161C40.5384 14.42 40.5464 12.6238 40.537 10.8278" fill="white"/>
</g>
</g>
<defs>
<clipPath id="clip0_6391_10097">
<rect width="50" height="17.5439" fill="white" transform="translate(0 9.71289)"/>
</clipPath>
</defs>
</svg>
