<svg width="32" height="32" viewBox="0 0 32 32" fill="none" xmlns="http://www.w3.org/2000/svg">
<path d="M0 16C0 7.16344 7.16344 0 16 0C24.8366 0 32 7.16344 32 16C32 24.8366 24.8366 32 16 32C7.16344 32 0 24.8366 0 16Z" fill="#4DAAFF"/>
<path d="M21.865 7.6525H10.135C7.5775 7.6525 5.5 9.73 5.5 12.2875V19.7125C5.5 22.27 7.5775 24.3475 10.135 24.3475H21.865C24.4225 24.3475 26.5 22.27 26.5 19.7125V12.2875C26.5 9.73 24.4225 7.6525 21.865 7.6525ZM25 19.7125C25 21.4375 23.59 22.8475 21.865 22.8475H10.135C8.41 22.8475 7 21.4375 7 19.7125V12.2875C7 10.5625 8.41 9.1525 10.135 9.1525H21.865C23.59 9.1525 25 10.5625 25 12.2875V19.7125ZM18.895 14.725L14.575 12.2275C14.11 11.9575 13.5625 11.9575 13.0975 12.2275C12.6325 12.4975 12.3625 12.97 12.3625 13.5025V18.49C12.3625 19.0225 12.64 19.5025 13.0975 19.765C13.33 19.9 13.585 19.9675 13.8325 19.9675C14.08 19.9675 14.3425 19.9 14.5675 19.765L18.8875 17.2675C19.3525 16.9975 19.63 16.525 19.63 15.9925C19.63 15.46 19.36 14.9875 18.895 14.725ZM13.8625 18.4975L13.825 13.525L18.1075 16L13.8625 18.4975Z" fill="white"/>
</svg>
