<svg width="32" height="32" viewBox="0 0 32 32" fill="none" xmlns="http://www.w3.org/2000/svg">
<path d="M0 16C0 7.16344 7.16344 0 16 0C24.8366 0 32 7.16344 32 16C32 24.8366 24.8366 32 16 32C7.16344 32 0 24.8366 0 16Z" fill="#4DAAFF"/>
<path d="M15.9999 8.13283C18.5631 8.13283 18.8672 8.14243 19.8792 8.18883C20.9256 8.23683 22.0032 8.47523 22.7656 9.23763C23.5352 10.0072 23.7664 11.0744 23.8144 12.124C23.8608 13.136 23.8703 13.44 23.8703 16.0032C23.8703 18.5664 23.8608 18.8704 23.8144 19.8824C23.7672 20.9232 23.5232 22.0112 22.7656 22.7688C21.996 23.5384 20.9296 23.7696 19.8792 23.8176C18.8672 23.864 18.5631 23.8736 15.9999 23.8736C13.4367 23.8736 13.1327 23.864 12.1207 23.8176C11.0879 23.7704 9.98555 23.5208 9.23435 22.7688C8.46875 22.0032 8.23355 20.9256 8.18555 19.8824C8.13915 18.8704 8.12955 18.5664 8.12955 16.0032C8.12955 13.44 8.13915 13.136 8.18555 12.124C8.23275 11.0872 8.47915 9.99283 9.23435 9.23763C10.0023 8.46963 11.0735 8.23683 12.1207 8.18883C13.1327 8.14243 13.4367 8.13283 15.9999 8.13283ZM15.9999 6.40323C13.3927 6.40323 13.0655 6.41443 12.0415 6.46083C10.5575 6.52883 9.08395 6.94163 8.01115 8.01443C6.93435 9.09123 6.52555 10.5616 6.45755 12.0448C6.41115 13.0688 6.39995 13.396 6.39995 16.0032C6.39995 18.6104 6.41115 18.9376 6.45755 19.9616C6.52555 21.444 6.93995 22.9216 8.01115 23.992C9.08715 25.068 10.5599 25.4776 12.0415 25.5456C13.0655 25.592 13.3927 25.6032 15.9999 25.6032C18.6071 25.6032 18.9343 25.592 19.9583 25.5456C21.4415 25.4776 22.9168 25.064 23.9888 23.992C25.0664 22.9144 25.4743 21.4448 25.5423 19.9616C25.5887 18.9376 25.5999 18.6104 25.5999 16.0032C25.5999 13.396 25.5887 13.0688 25.5423 12.0448C25.4743 10.5608 25.0608 9.08643 23.9888 8.01443C22.9144 6.94003 21.4375 6.52803 19.9583 6.46083C18.9343 6.41443 18.6071 6.40323 15.9999 6.40323Z" fill="white"/>
<path d="M16 11.0736C13.2776 11.0736 11.0704 13.2808 11.0704 16.0032C11.0704 18.7256 13.2776 20.9328 16 20.9328C18.7224 20.9328 20.9296 18.7256 20.9296 16.0032C20.9296 13.2808 18.7224 11.0736 16 11.0736ZM16 19.2032C14.2328 19.2032 12.8 17.7704 12.8 16.0032C12.8 14.236 14.2328 12.8032 16 12.8032C17.7672 12.8032 19.2 14.236 19.2 16.0032C19.2 17.7704 17.7672 19.2032 16 19.2032Z" fill="white"/>
<path d="M21.1248 12.0304C21.761 12.0304 22.2768 11.5147 22.2768 10.8784C22.2768 10.2422 21.761 9.72643 21.1248 9.72643C20.4885 9.72643 19.9727 10.2422 19.9727 10.8784C19.9727 11.5147 20.4885 12.0304 21.1248 12.0304Z" fill="white"/>
</svg>
