<svg width="50" height="38" viewBox="0 0 50 38" fill="none" xmlns="http://www.w3.org/2000/svg">
<mask id="mask0_6391_10105" style="mask-type:luminance" maskUnits="userSpaceOnUse" x="5" y="3" width="40" height="32">
<path fill-rule="evenodd" clip-rule="evenodd" d="M5 3.00195H45V34.5888H5V3.00195Z" fill="white"/>
</mask>
<g mask="url(#mask0_6391_10105)">
<path fill-rule="evenodd" clip-rule="evenodd" d="M44.2119 34.1694V34.2505H44.2864C44.3004 34.2507 44.3143 34.2472 44.3265 34.2402C44.3364 34.2331 44.3421 34.2214 44.3414 34.2092C44.3419 34.1971 44.3364 34.1856 44.3265 34.1789C44.3144 34.1715 44.3006 34.168 44.2864 34.1685H44.2119V34.1694ZM44.2872 34.1119C44.3192 34.1099 44.3509 34.1193 44.3768 34.1384C44.3979 34.1559 44.4096 34.1826 44.4083 34.2102C44.4092 34.2339 44.4 34.2569 44.383 34.2733C44.3631 34.2909 44.3379 34.3016 44.3115 34.3035L44.4114 34.4192H44.3344L44.2425 34.3043H44.2127V34.4192H44.1482V34.1122H44.2883L44.2872 34.1119ZM44.2672 34.5252C44.3011 34.5256 44.3345 34.5186 44.3655 34.5049C44.3954 34.4919 44.4225 34.4732 44.4455 34.4499C44.4685 34.4266 44.4869 34.3991 44.4997 34.3687C44.5259 34.3043 44.5259 34.2321 44.4997 34.1677C44.4868 34.1374 44.4684 34.1099 44.4455 34.0865C44.4225 34.0632 44.3954 34.0445 44.3655 34.0315C44.3343 34.0186 44.301 34.012 44.2672 34.0124C44.233 34.0121 44.199 34.0186 44.1673 34.0315C44.1368 34.0442 44.1089 34.0629 44.0855 34.0865C44.0132 34.1616 43.9922 34.2739 44.032 34.3708C44.0442 34.4012 44.0624 34.4288 44.0855 34.452C44.1091 34.4754 44.1368 34.4941 44.1673 34.507C44.1989 34.5207 44.2329 34.5275 44.2672 34.5273M44.2672 33.9386C44.3552 33.9384 44.4396 33.9734 44.5023 34.036C44.5325 34.066 44.5565 34.1018 44.5731 34.1414C44.6076 34.2232 44.6076 34.3162 44.5731 34.3982C44.5561 34.4374 44.5322 34.4732 44.5023 34.5034C44.4716 34.5333 44.4359 34.5574 44.3969 34.5745C44.3559 34.5921 44.3119 34.6012 44.2672 34.601C44.2223 34.6012 44.1776 34.5923 44.136 34.5745C44.0966 34.5578 44.0606 34.5337 44.0298 34.5034C44 34.4721 43.9763 34.4351 43.9601 34.3947C43.9256 34.3127 43.9256 34.2198 43.9601 34.1378C43.9765 34.0983 44.0007 34.0625 44.0309 34.0325C44.0612 34.0017 44.0973 33.9777 44.1371 33.9615C44.1786 33.9437 44.2233 33.9347 44.2683 33.9351M13.6432 32.7523C13.6432 32.1668 14.0213 31.6856 14.639 31.6856C15.2294 31.6856 15.6279 32.146 15.6279 32.7523C15.6279 33.3588 15.2294 33.8192 14.639 33.8192C14.0213 33.8192 13.6432 33.338 13.6432 32.7523ZM16.3008 32.7523V31.0857H15.587V31.4918C15.3606 31.1917 15.0173 31.0036 14.5502 31.0036C13.6302 31.0036 12.9082 31.736 12.9082 32.7533C12.9082 33.7705 13.6298 34.5029 14.5502 34.5029C15.017 34.5029 15.3606 34.3144 15.587 34.0146V34.4192H16.3001V32.7523H16.3008ZM40.4193 32.7523C40.4193 32.1668 40.7972 31.6856 41.4152 31.6856C42.0062 31.6856 42.4041 32.146 42.4041 32.7523C42.4041 33.3588 42.0062 33.8192 41.4152 33.8192C40.7975 33.8192 40.4193 33.338 40.4193 32.7523ZM43.0777 32.7523V29.748H42.3632V31.4918C42.1368 31.1917 41.7935 31.0036 41.3265 31.0036C40.4064 31.0036 39.6844 31.736 39.6844 32.7533C39.6844 33.7705 40.406 34.5029 41.3265 34.5029C41.7935 34.5029 42.1368 34.3144 42.3632 34.0146V34.4192H43.0777V32.7523ZM25.1601 31.6513C25.62 31.6513 25.9155 31.9441 25.9908 32.4595H24.2877C24.3639 31.9783 24.6515 31.6513 25.1601 31.6513ZM25.1745 31.0018C24.2125 31.0018 23.5395 31.7122 23.5395 32.7514C23.5395 33.8109 24.2394 34.5011 25.2223 34.5011C25.7166 34.5011 26.1695 34.3758 26.5679 34.0341L26.218 33.4973C25.9429 33.7205 25.5925 33.8458 25.263 33.8458C24.8031 33.8458 24.3843 33.6295 24.2813 33.0297H26.7187C26.7257 32.9396 26.7328 32.8487 26.7328 32.7512C26.7257 31.7125 26.0929 31.0015 25.1741 31.0015M33.7921 32.7512C33.7921 32.1655 34.1701 31.6844 34.7878 31.6844C35.3783 31.6844 35.7767 32.1448 35.7767 32.7512C35.7767 33.3575 35.3783 33.818 34.7878 33.818C34.1701 33.818 33.7919 33.3368 33.7919 32.7512M36.4495 32.7512V31.0857H35.7361V31.4918C35.5089 31.1917 35.1663 31.0036 34.6993 31.0036C33.7793 31.0036 33.0573 31.736 33.0573 32.7533C33.0573 33.7705 33.7789 34.5029 34.6993 34.5029C35.1663 34.5029 35.5089 34.3144 35.7361 34.0146V34.4192H36.4496V32.7523L36.4495 32.7512ZM29.761 32.7512C29.761 33.7619 30.4542 34.5008 31.5123 34.5008C32.0066 34.5008 32.3361 34.3892 32.6923 34.1036L32.3494 33.5179C32.0814 33.7134 31.8 33.818 31.4895 33.818C30.9196 33.8109 30.5007 33.3926 30.5007 32.7512C30.5007 32.1097 30.9196 31.6917 31.4895 31.6844C31.7993 31.6844 32.0806 31.789 32.3494 31.9844L32.6923 31.3989C32.3354 31.1131 32.0061 31.0015 31.5123 31.0015C30.4542 31.0015 29.761 31.7403 29.761 32.7512ZM38.9631 31.0015C38.5513 31.0015 38.2831 31.197 38.0977 31.4898V31.0857H37.3902V34.4174H38.1048V32.5498C38.1048 31.9985 38.3382 31.6921 38.8049 31.6921C38.9576 31.6898 39.1094 31.7184 39.2512 31.7759L39.4713 31.0931C39.3133 31.0299 39.1073 31.0022 38.9627 31.0022M19.8299 31.3507C19.4865 31.1209 19.0132 31.0022 18.4913 31.0022C17.6596 31.0022 17.1242 31.4067 17.1242 32.0688C17.1242 32.6119 17.5228 32.9471 18.2569 33.0516L18.594 33.1003C18.9855 33.1561 19.1702 33.2608 19.1702 33.4488C19.1702 33.7065 18.9103 33.8535 18.4221 33.8535C17.9276 33.8535 17.5708 33.6931 17.3303 33.5049L16.9948 34.0699C17.3863 34.3626 17.8807 34.5023 18.4161 34.5023C19.3641 34.5023 19.9135 34.0491 19.9135 33.4147C19.9135 32.8291 19.481 32.5228 18.7667 32.4183L18.4302 32.3687C18.1212 32.3282 17.8737 32.265 17.8737 32.0416C17.8737 31.7982 18.1071 31.6515 18.4987 31.6515C18.9176 31.6515 19.3232 31.8119 19.522 31.9371L19.831 31.3515L19.8299 31.3507ZM29.0401 31.0027C28.6283 31.0027 28.3601 31.1983 28.1755 31.491V31.0857H27.468V34.4174H28.1818V32.5498C28.1818 31.9985 28.4152 31.6921 28.8819 31.6921C29.0346 31.6898 29.1863 31.7184 29.3282 31.7759L29.5482 31.0931C29.3903 31.0299 29.1843 31.0022 29.0397 31.0022M22.9489 31.0857H21.7816V30.0751H21.06V31.0857H20.3943V31.748H21.06V33.2679C21.06 34.0408 21.3556 34.5012 22.2 34.5012C22.5098 34.5012 22.8666 34.4038 23.093 34.2436L22.8869 33.6232C22.6738 33.7485 22.4404 33.8117 22.2549 33.8117C21.898 33.8117 21.7816 33.5883 21.7816 33.2541V31.7485H22.9489V31.0857ZM12.277 34.4183V32.3274C12.277 31.5399 11.7826 31.0101 10.9857 31.003C10.5666 30.9959 10.1344 31.1283 9.8319 31.5957C9.6055 31.2263 9.24866 31.003 8.7471 31.003C8.39649 31.003 8.0539 31.1075 7.78562 31.4977V31.0857H7.07129V34.4174H7.7912V32.5701C7.7912 31.9918 8.1072 31.6844 8.59526 31.6844C9.0692 31.6844 9.30908 31.9981 9.30908 32.5628V34.417H10.0307V32.5697C10.0307 31.9914 10.36 31.6841 10.8338 31.6841C11.3212 31.6841 11.5539 31.9977 11.5539 32.5624V34.4166L12.277 34.4183Z" fill="white"/>
<path fill-rule="evenodd" clip-rule="evenodd" d="M44.619 23.3241V22.8369H44.494L44.3494 23.1712L44.2056 22.8369H44.0802V23.3241H44.1689V22.9571L44.3041 23.2737H44.3962L44.5313 22.9563V23.3241H44.6193H44.619ZM43.8259 23.3241V22.9204H43.9859V22.8381H43.5771V22.9204H43.7371V23.3241H43.8259Z" fill="#F79410"/>
<path fill-rule="evenodd" clip-rule="evenodd" d="M30.4115 25.4084H19.5943V5.67676H30.4117L30.4115 25.4084Z" fill="#FF5F00"/>
<path fill-rule="evenodd" clip-rule="evenodd" d="M20.2801 15.5509C20.2801 11.5483 22.1265 7.98282 25.0016 5.68501C22.8257 3.94352 20.1329 2.99776 17.3619 3.00197C10.5344 3.00197 5 8.62021 5 15.5509C5 22.4814 10.5344 28.0997 17.3619 28.0997C20.1329 28.1039 22.8258 27.1581 25.0019 25.4166C22.1269 23.1192 20.2801 19.5536 20.2801 15.5509Z" fill="#EB001B"/>
<path fill-rule="evenodd" clip-rule="evenodd" d="M45.0049 15.5509C45.0049 22.4814 39.4705 28.0997 32.6431 28.0997C29.8718 28.1038 27.1786 27.1581 25.0021 25.4166C27.8781 23.1188 29.7246 19.5536 29.7246 15.5509C29.7246 11.548 27.8781 7.98281 25.0021 5.685C27.1785 3.94352 29.8716 2.99789 32.6429 3.00197C39.4704 3.00197 45.0048 8.62021 45.0048 15.5509" fill="#F79410"/>
</g>
</svg>
