<svg width="50" height="38" viewBox="0 0 50 38" fill="none" xmlns="http://www.w3.org/2000/svg">
<path d="M18.9847 11.2859L12.4396 26.9037H8.16777L4.94922 14.4411C4.75107 13.6726 4.58174 13.3929 3.9876 13.0665C3.01436 12.5403 1.41348 12.0468 0 11.7394L0.0989258 11.286H6.97187C7.84844 11.286 8.63652 11.8707 8.83467 12.8786L10.5365 21.9179L14.74 11.286L18.9847 11.2859ZM35.7177 21.8023C35.7366 17.6826 30.0172 17.4584 30.0583 15.6153C30.0694 15.0527 30.6026 14.4574 31.7704 14.3071C32.3503 14.23 33.9461 14.1734 35.7548 15.0038L36.4637 11.6935C35.4905 11.3402 34.2396 11.002 32.685 11.002C28.6919 11.002 25.8809 13.1259 25.8571 16.1648C25.831 18.4121 27.8627 19.6662 29.3952 20.4146C30.9688 21.1805 31.495 21.6694 31.4895 22.3563C31.4792 23.4045 30.2339 23.8626 29.0724 23.8832C27.0406 23.9148 25.8622 23.3342 24.9211 22.8959L24.1896 26.32C25.1323 26.7528 26.8776 27.1286 28.6839 27.1508C32.9279 27.1506 35.7043 25.0493 35.7177 21.8023ZM46.2625 26.9038H50L46.7388 11.286H43.2885C42.5132 11.286 41.8596 11.7382 41.5684 12.4309L35.5096 26.9038H39.7503L40.5921 24.5714H45.7759L46.2625 26.9038ZM41.7543 21.3703L43.8818 15.5061L45.1058 21.3703H41.7543ZM24.7583 11.2859L21.4155 26.9037H17.3746L20.7182 11.2859H24.7583Z" fill="white"/>
</svg>
