<svg width="22" height="22" viewBox="0 0 22 22" fill="none" xmlns="http://www.w3.org/2000/svg">
<path d="M12.4139 11L18.707 4.70758C19.0977 4.31694 19.0977 3.68359 18.707 3.29298C18.3164 2.90234 17.683 2.90234 17.2924 3.29298L11 9.58604L4.70758 3.29298C4.31694 2.90234 3.68359 2.90234 3.29298 3.29298C2.90237 3.68362 2.90234 4.31697 3.29298 4.70758L9.58604 11L3.29298 17.2924C2.90234 17.6831 2.90234 18.3164 3.29298 18.707C3.68362 19.0976 4.31697 19.0977 4.70758 18.707L11 12.4139L17.2924 18.707C17.683 19.0977 18.3164 19.0977 18.707 18.707C19.0976 18.3164 19.0976 17.683 18.707 17.2924L12.4139 11Z" fill="#333333"/>
</svg>
