<svg width="16" height="16" viewBox="0 0 16 16" fill="none" xmlns="http://www.w3.org/2000/svg">
<path d="M9.41393 7.99998L15.707 1.70758C16.0977 1.31694 16.0977 0.68359 15.707 0.29298C15.3164 -0.0976601 14.683 -0.0976601 14.2924 0.29298L7.99998 6.58604L1.70758 0.29298C1.31694 -0.0976601 0.68359 -0.0976601 0.29298 0.29298C-0.0976289 0.683621 -0.0976601 1.31697 0.29298 1.70758L6.58604 7.99998L0.29298 14.2924C-0.0976601 14.6831 -0.0976601 15.3164 0.29298 15.707C0.683621 16.0976 1.31697 16.0977 1.70758 15.707L7.99998 9.41393L14.2924 15.707C14.683 16.0977 15.3164 16.0977 15.707 15.707C16.0976 15.3164 16.0976 14.683 15.707 14.2924L9.41393 7.99998Z" fill="#333333"/>
</svg>
