<svg width="22" height="20" viewBox="0 0 22 20" fill="none" xmlns="http://www.w3.org/2000/svg">
<path d="M21 6.86222C21 8.40874 20.4062 9.89412 19.3458 10.9929C16.9049 13.523 14.5374 16.1613 12.0053 18.5997C11.4249 19.1505 10.5042 19.1304 9.9488 18.5547L2.65376 10.9929C0.448748 8.7072 0.448748 5.01723 2.65376 2.73157C4.88044 0.423452 8.50794 0.423452 10.7346 2.73157L10.9998 3.00642L11.2648 2.73173C12.3324 1.6245 13.7864 1 15.3053 1C16.8242 1 18.2781 1.62444 19.3458 2.73157C20.4063 3.83045 21 5.31577 21 6.86222Z" fill="white" fill-opacity="0.3" stroke="url(#paint0_linear_1817_1948)" stroke-width="1.5" stroke-linejoin="round"/>
<defs>
<linearGradient id="paint0_linear_1817_1948" x1="11" y1="1" x2="11" y2="19" gradientUnits="userSpaceOnUse">
<stop stop-color="#56AEFF"/>
<stop offset="1" stop-color="#49A1F1"/>
</linearGradient>
</defs>
</svg>
