<svg width="21" height="15" viewBox="0 0 21 15" fill="none" xmlns="http://www.w3.org/2000/svg">
<path fill-rule="evenodd" clip-rule="evenodd" d="M0.0820312 1.92871C0.361328 0.959223 1.21094 0.188959 2.18164 0.0236759C2.27539 0.00829509 6.0293 -0.0024471 10.5254 0.000482589L18.4355 0.00512126C18.6094 0.0053654 18.7832 0.0339299 18.9473 0.0898381C19.8457 0.392817 20.5039 1.06323 20.752 1.92871C20.8066 2.11743 20.8359 2.31298 20.8359 2.50952V12.4939C20.8359 12.6912 20.8066 12.8872 20.752 13.0767C20.6875 13.2991 20.5938 13.5112 20.4766 13.7085C20.3652 13.8962 20.2305 14.0706 20.0742 14.2273C19.7559 14.5486 19.3613 14.7854 18.9277 14.9165C18.752 14.9719 18.5684 15 18.3828 15H2.45117C2.26758 15 2.08398 14.9719 1.90625 14.9165C1.38281 14.7519 0.933594 14.449 0.599609 14.0503C0.363281 13.7683 0.185547 13.4387 0.0820312 13.0767C0.0273438 12.8872 0 12.6912 0 12.4939V2.50952C0 2.31298 0.0273438 2.11743 0.0820312 1.92871ZM4.80859 4.54443C4.8418 4.35302 5.05273 4.04223 5.22852 3.92871C5.26758 3.90258 5.31055 3.88183 5.35547 3.86645C5.40039 3.85058 5.44727 3.84057 5.49414 3.83666C5.58984 3.8291 5.68359 3.84619 5.77148 3.88574C5.83984 3.91406 6.9043 4.64355 8.13672 5.5061C9.36914 6.36962 10.3965 7.0747 10.418 7.0747C10.4395 7.0747 11.4668 6.36962 12.6992 5.5061C13.25 5.12036 13.7676 4.76147 14.1777 4.47973C14.6855 4.13134 15.0273 3.90136 15.0645 3.88574C15.2422 3.81127 15.418 3.82153 15.5781 3.91113C15.6816 3.96972 15.7773 4.06225 15.8613 4.18701C16.0898 4.52294 16.082 4.80371 15.8379 5.04565C15.7695 5.11181 14.6328 5.91992 13.4453 6.75463C12.1582 7.65966 10.8125 8.5957 10.7051 8.65038C10.6133 8.69018 10.5176 8.71069 10.418 8.71069C10.3184 8.71069 10.2207 8.69018 10.1309 8.65038C9.99219 8.57934 5.32031 5.31664 5.08008 5.12329C4.88086 4.96313 4.77734 4.73779 4.80859 4.54443Z" fill="#4DAAFF"/>
</svg>
