<svg width="20" height="18" viewBox="0 0 20 18" fill="none" xmlns="http://www.w3.org/2000/svg">
<path fill-rule="evenodd" clip-rule="evenodd" d="M5.45403 0.00927986L5.0811 0.0601761C4.22975 0.173073 3.29511 0.545078 2.55295 1.067C2.15781 1.34554 1.45359 2.04235 1.1732 2.43286C0.590088 3.24205 0.207003 4.17788 0.0553351 5.16368C-0.0103673 5.57547 -0.0196211 6.54065 0.0386782 6.92839C0.225606 8.17581 0.721613 9.27331 1.49801 10.1617C1.8913 10.6114 8.36622 17.3205 8.60404 17.525C9.01029 17.8738 9.47668 18.0275 10.0347 17.996C10.7056 17.959 10.9684 17.8026 11.8966 16.8883C12.9247 15.8759 17.0232 11.6016 18.154 10.3616C18.9369 9.50373 19.419 8.61259 19.6717 7.5558C19.7929 7.05054 19.8364 6.66558 19.8364 6.09739C19.8364 5.5292 19.7929 5.14332 19.6717 4.63806C19.4199 3.57035 18.8839 2.59063 18.1207 1.80268C17.2222 0.862485 16.0719 0.265612 14.7514 0.052773C14.3942 -0.00460092 13.4031 -0.00460092 13.0376 0.052773C11.9253 0.227671 10.7759 0.76532 10.0282 1.45936V1.45936C9.96735 1.51603 9.87338 1.51714 9.81119 1.46192L9.72284 1.38348C9.32492 1.0272 8.58739 0.590422 8.02475 0.377583C7.65783 0.244762 7.28052 0.142619 6.89671 0.0722061C6.61169 0.0231606 5.65207 -0.0194071 5.45403 0.00927986ZM6.67462 1.43437C7.25298 1.53524 7.85356 1.76751 8.33753 2.07752C8.617 2.25612 8.87703 2.47266 9.25644 2.84281C9.61734 3.19446 9.70248 3.2472 9.91994 3.2472C10.1198 3.2472 10.2346 3.17317 10.6288 2.79191C11.271 2.17098 11.805 1.83044 12.5119 1.59169C13.0542 1.40846 13.9269 1.3298 14.5034 1.41309C15.2125 1.51972 15.887 1.78997 16.4736 2.20244C17.0602 2.6149 17.5427 3.15825 17.8829 3.78948C18.321 4.59918 18.5195 5.51691 18.4551 6.43529C18.3907 7.35366 18.066 8.23471 17.5192 8.97534C17.4119 9.1197 17.1194 9.45191 16.8687 9.71194C16.6179 9.9729 15.8868 10.7428 15.2446 11.4239C12.6128 14.213 10.4261 16.4423 10.2142 16.5505C10.1202 16.5927 10.0183 16.6144 9.91532 16.6144C9.81229 16.6144 9.71043 16.5927 9.61642 16.5505C9.54609 16.5145 9.38322 16.3738 9.25459 16.2368C9.12504 16.0999 7.55466 14.4694 5.76404 12.614C3.97434 10.7576 2.41969 9.11877 2.31142 8.97256C1.6975 8.13987 1.36621 7.13254 1.36605 6.098C1.36588 5.06346 1.69684 4.05603 2.3105 3.22314C2.99713 2.29683 4.08724 1.6176 5.1829 1.43345C5.56508 1.36867 6.30446 1.3696 6.67462 1.43437Z" fill="#333333"/>
</svg>
