<svg width="21" height="15" viewBox="0 0 21 15" fill="none" xmlns="http://www.w3.org/2000/svg">
<path fill-rule="evenodd" clip-rule="evenodd" d="M2.18164 0.023792C1.21127 0.188921 0.361341 0.959198 0.0825644 1.9286V1.9286C0.0277966 2.11739 0 2.31297 0 2.50954V12.4939C0 12.6911 0.0277949 12.8873 0.0825644 13.0767V13.0767C0.334143 13.9509 1.01311 14.6357 1.90675 14.9165V14.9165C2.08315 14.9718 2.26696 15 2.45185 15H18.3835C18.5684 15 18.7522 14.9718 18.9286 14.9165V14.9165C19.3615 14.7853 19.7549 14.5485 20.0734 14.2273C20.3918 13.9061 20.6253 13.5107 20.7528 13.0767V13.0767C20.8076 12.8873 20.8354 12.6911 20.8354 12.4939V2.50954C20.8354 2.31297 20.8076 2.11739 20.7528 1.9286V1.9286C20.5041 1.06313 19.8456 0.392903 18.948 0.0898435V0.0898435C18.7827 0.0338809 18.6094 0.00528351 18.4349 0.00517981L10.5245 0.000479677C6.02914 -0.00243436 2.27489 0.00825043 2.18164 0.023792ZM18.6081 1.51481C18.951 1.64594 19.2482 1.9694 19.3502 2.32491C19.4114 2.53569 19.4114 12.4696 19.3502 12.6804C19.2672 12.9335 19.1123 13.157 18.9043 13.3235C18.5576 13.577 19.2802 13.5576 10.4128 13.5576H2.6197C2.47905 13.5576 2.33954 13.5322 2.20787 13.4828V13.4828C1.96698 13.3924 1.67849 13.1204 1.5493 12.863V12.863C1.49053 12.7455 1.45993 12.6159 1.45993 12.4845V2.51901C1.45993 2.38819 1.49054 2.25918 1.5493 2.1423V2.1423C1.6746 1.89169 1.96795 1.61194 2.19816 1.52355C2.38563 1.45167 2.42934 1.45167 10.408 1.44973C18.1952 1.44778 18.4361 1.44973 18.6081 1.51481ZM5.22875 3.9286C5.05294 4.04225 4.84119 4.35308 4.80816 4.54444C4.77611 4.73773 4.88101 4.96309 5.07917 5.12336C5.31909 5.31666 9.99126 8.57941 10.1311 8.65031C10.2214 8.69019 10.319 8.71079 10.4177 8.71079C10.5164 8.71079 10.614 8.69019 10.7042 8.65031C10.9102 8.54541 15.6969 5.18358 15.8368 5.04565C16.0826 4.80378 16.0903 4.52307 15.8611 4.18698C15.6455 3.87129 15.3589 3.7625 15.0646 3.88586C14.9956 3.91403 13.932 4.64351 12.6994 5.50607C11.4667 6.36959 10.44 7.07479 10.4177 7.07479C10.3953 7.07479 9.36863 6.36959 8.13599 5.50607C6.90335 4.64351 5.83973 3.91403 5.77077 3.88586C5.68428 3.84614 5.58907 3.82921 5.4942 3.83669C5.39932 3.84417 5.30794 3.87581 5.22875 3.9286Z" fill="#333333"/>
</svg>
