<svg width="17" height="18" viewBox="0 0 17 18" fill="none" xmlns="http://www.w3.org/2000/svg">
<path fill-rule="evenodd" clip-rule="evenodd" d="M7.64254 0.00672103C7.60394 0.0134338 7.47808 0.0318938 7.36312 0.0486757C6.5341 0.16531 5.59347 0.573109 4.86011 1.13278C4.51987 1.41498 4.20383 1.72512 3.91529 2.05998C3.25564 2.88345 2.8154 3.86064 2.63567 4.90032C2.57525 5.25274 2.5677 5.37105 2.52323 6.65318C2.49386 7.51493 2.44687 8.08636 2.35625 8.70561C2.12214 10.3016 1.64973 11.676 0.991883 12.6779C0.795535 12.9766 0.440598 13.4054 0.301309 13.5111C0.168732 13.6126 0.0957307 13.6923 0.0437068 13.7914C-0.0905482 14.0473 0.0999261 14.4761 0.404517 14.6036C0.497657 14.6422 1.31242 14.6464 8.22991 14.6464C15.1155 14.6464 15.963 14.6422 16.0545 14.6036C16.2718 14.513 16.3683 14.346 16.3683 14.059C16.3683 13.8182 16.3037 13.6839 16.1073 13.5161C15.6827 13.1528 15.1541 12.3498 14.8168 11.556C14.2378 10.1925 13.95 8.68882 13.8804 6.66157C13.8351 5.35175 13.8283 5.24686 13.7688 4.90032C13.5879 3.86098 13.1478 2.88406 12.4891 2.05998C12.1855 1.7045 11.8483 1.3791 11.4822 1.08831C10.8229 0.596351 10.064 0.254416 9.25863 0.0864349C8.96411 0.024342 8.8307 0.0125947 8.31382 0.00420373C8.09009 -0.00214255 7.86621 -0.001303 7.64254 0.00672103ZM8.77532 1.27963C10.3293 1.47514 11.7533 2.68343 12.3113 4.28023C12.5412 4.9364 12.5882 5.26868 12.6217 6.47949C12.6595 7.82875 12.7484 8.6905 12.959 9.73182C13.2259 11.0576 13.7075 12.3439 14.2563 13.2023C14.3108 13.2879 14.3553 13.371 14.3553 13.3869C14.3553 13.407 12.474 13.4163 8.20222 13.4163C4.41371 13.4163 2.04914 13.4062 2.04914 13.3903C2.04914 13.3752 2.11291 13.2594 2.19179 13.131C2.67762 12.3389 3.12905 11.1667 3.37827 10.054C3.63335 8.91622 3.73992 7.96636 3.78271 6.46103C3.8104 5.486 3.83641 5.20994 3.93878 4.79711C4.23582 3.60811 4.89199 2.63644 5.84772 1.97272C5.95093 1.90139 6.17329 1.77301 6.34195 1.68743C7.11643 1.29641 7.8842 1.16719 8.77532 1.27963ZM6.58025 15.9369C6.16406 16.1022 6.00127 16.4437 6.17413 16.7878C6.40656 17.2493 6.88987 17.6755 7.38326 17.8542C8.35074 18.2058 9.42226 17.9063 10.0155 17.1184C10.3192 16.7156 10.3746 16.4798 10.2202 16.2398C10.1538 16.145 10.067 16.0662 9.9663 16.0092C9.86557 15.9522 9.75338 15.9183 9.63791 15.9101C9.48183 15.9 9.44575 15.9075 9.3501 15.9713C9.28968 16.0116 9.19067 16.1165 9.13025 16.2054C8.99096 16.411 8.79378 16.5931 8.6268 16.6703C8.43716 16.7576 7.96727 16.7576 7.77763 16.6703C7.61066 16.5931 7.41347 16.411 7.27502 16.2063C7.12314 15.9831 6.99979 15.905 6.80429 15.9067C6.72857 15.9065 6.65319 15.9166 6.58025 15.9369Z" fill="#333333"/>
</svg>
