<svg width="20" height="18" viewBox="0 0 20 18" fill="none" xmlns="http://www.w3.org/2000/svg">
<path fill-rule="evenodd" clip-rule="evenodd" d="M5.45403 0.00927986L5.0811 0.0601761C4.22975 0.173073 3.29511 0.545078 2.55295 1.067C2.15781 1.34554 1.45359 2.04235 1.1732 2.43286C0.590088 3.24205 0.207003 4.17788 0.0553351 5.16368C-0.0103673 5.57547 -0.0196211 6.54065 0.0386782 6.92839C0.225606 8.17581 0.721613 9.27331 1.49801 10.1617C1.8913 10.6114 8.36622 17.3205 8.60404 17.525C9.01029 17.8738 9.47668 18.0275 10.0347 17.996C10.7056 17.959 10.9684 17.8026 11.8966 16.8883C12.9247 15.8759 17.0232 11.6016 18.154 10.3616C18.9369 9.50373 19.419 8.61259 19.6717 7.5558C19.7929 7.05054 19.8364 6.66558 19.8364 6.09739C19.8364 5.5292 19.7929 5.14332 19.6717 4.63806C19.4199 3.57035 18.8839 2.59063 18.1207 1.80268C17.2222 0.862485 16.0719 0.265612 14.7514 0.052773C14.3942 -0.00460092 13.4031 -0.00460092 13.0376 0.052773C11.9253 0.227671 10.7759 0.76532 10.0282 1.45936V1.45936C9.96735 1.51603 9.87338 1.51714 9.81119 1.46192L9.72284 1.38348C9.32492 1.0272 8.58739 0.590422 8.02475 0.377583C7.65783 0.244762 7.28052 0.142619 6.89671 0.0722061C6.61169 0.0231606 5.65207 -0.0194071 5.45403 0.00927986Z" fill="#4DAAFF"/>
</svg>
