<svg width="478" height="72" viewBox="0 0 478 72" fill="none" xmlns="http://www.w3.org/2000/svg">
<circle cx="35.8052" cy="35.8052" r="35.8052" fill="#4DAAFF"/>
<path d="M28.4965 54.5045C31.8305 60.0636 39.8061 60.0546 43.1132 54.5046C44.1833 52.2133 45.8393 46.6366 48.5425 42.2057C52.4528 35.7966 55.7663 33.0754 56.5092 31.6521C59.8131 26.007 55.7212 18.9055 49.1803 18.9055C47.1193 18.9055 44.613 20.4719 35.7691 20.7047C28.3753 20.7047 24.4546 18.9055 22.4294 18.9055C15.8886 18.9055 11.7616 25.8338 15.1005 31.6432C19.0659 36.7633 20.4196 37.7522 23.0313 42.2147C25.8152 46.4844 27.0057 51.5867 28.4965 54.5045Z" fill="white"/>
<path d="M123.122 11.7293C118.176 11.7293 113.66 13.5224 110.076 17.3236L109.455 13.4854C109.358 12.8866 108.841 12.4465 108.235 12.4465H101.49C100.808 12.4465 100.255 13 100.255 13.6828V53.0955C100.255 53.7783 100.808 54.3318 101.49 54.3318H109.7C110.383 54.3318 110.936 53.7783 110.936 53.0955V34.2498C110.936 26.3605 114.377 22.0572 120.828 22.0572C126.778 22.0572 129.861 25.4998 129.861 32.2416V53.0955C129.861 53.7783 130.414 54.3318 131.096 54.3318H139.306C139.989 54.3318 140.542 53.7783 140.542 53.0955V29.6597C140.542 18.5429 133.947 11.7293 123.122 11.7293Z" fill="#333333"/>
<path d="M185.501 17.3953C182.347 14.0961 177.83 11.7293 172.454 11.7293C161.056 11.7293 151.737 21.1248 151.737 33.3892C151.737 45.5818 161.056 55.049 172.454 55.049C177.83 55.049 182.347 52.6822 185.501 49.383L186.123 53.2902C186.219 53.8902 186.736 54.3318 187.344 54.3318H194.158C194.84 54.3318 195.393 53.7783 195.393 53.0955V13.6828C195.393 13 194.84 12.4465 194.158 12.4465H187.344C186.736 12.4465 186.219 12.8881 186.123 13.4882L185.501 17.3953ZM173.673 44.5777C167.364 44.5777 162.561 39.8441 162.561 33.3892C162.561 26.9342 167.364 22.2006 173.673 22.2006C179.981 22.2006 184.784 26.9342 184.784 33.3892C184.784 39.7724 179.981 44.5777 173.673 44.5777Z" fill="#333333"/>
<path d="M232.29 11.7293C226.913 11.7293 222.326 14.1679 219.171 17.3953L218.549 13.4882C218.453 12.8881 217.936 12.4465 217.329 12.4465H210.586C209.904 12.4465 209.351 13 209.351 13.6828V66.4357C209.351 67.1185 209.904 67.6719 210.586 67.6719H218.796C219.478 67.6719 220.032 67.1185 220.032 66.4357V50.0285C223.114 53.0408 227.344 55.049 232.29 55.049C243.616 55.049 253.007 45.6535 253.007 33.3892C253.007 21.1965 243.688 11.7293 232.29 11.7293ZM231 44.5777C224.763 44.5777 219.96 39.8441 219.96 33.3892C219.96 27.006 224.691 22.2006 231 22.2006C237.308 22.2006 242.111 26.9342 242.111 33.3892C242.111 39.8441 237.308 44.5777 231 44.5777Z" fill="#333333"/>
<path d="M286.893 12.0879C281.803 12.0879 277.574 14.3113 274.419 17.8256L273.726 13.4875C273.63 12.8877 273.113 12.4465 272.506 12.4465H265.834C265.152 12.4465 264.599 13 264.599 13.6828V53.0955C264.599 53.7783 265.152 54.3318 265.834 54.3318H274.044C274.726 54.3318 275.28 53.7783 275.28 53.0955V33.1023C275.28 26.8625 278.721 22.7744 285.531 22.7744C286.32 22.7744 287.17 22.8346 288.041 22.9355C288.795 23.0229 289.473 22.4459 289.473 21.6863V13.3504C289.473 12.746 289.037 12.2248 288.436 12.1649C287.922 12.1136 287.407 12.0879 286.893 12.0879Z" fill="#333333"/>
<path d="M317.645 55.049C329.975 55.049 339.652 45.5818 339.652 33.3892C339.652 21.1965 329.975 11.7293 317.645 11.7293C305.387 11.7293 295.709 21.1248 295.709 33.3892C295.709 45.5818 305.315 55.049 317.645 55.049ZM317.645 44.5777C311.337 44.5777 306.534 39.8441 306.534 33.3892C306.534 26.9342 311.337 22.2006 317.645 22.2006C323.953 22.2006 328.756 26.9342 328.756 33.3892C328.756 39.7724 324.025 44.5777 317.645 44.5777Z" fill="#333333"/>
<path d="M371.221 55.049C377.019 55.049 382.321 52.9418 386.263 49.3037C386.76 48.8449 386.749 48.0678 386.269 47.5917L380.424 41.7992C379.936 41.3151 379.15 41.3285 378.628 41.776C376.504 43.5963 373.971 44.5777 371.221 44.5777C364.698 44.5777 359.752 39.8441 359.752 33.3892C359.752 26.9342 364.698 22.2006 371.221 22.2006C374.022 22.2006 376.498 23.2278 378.557 25.0004C379.078 25.4494 379.864 25.4629 380.353 24.9787L386.197 19.1869C386.677 18.7106 386.688 17.9333 386.192 17.4738C382.199 13.779 376.958 11.7293 371.221 11.7293C358.605 11.7293 348.927 21.1248 348.927 33.3892C348.927 45.6535 358.605 55.049 371.221 55.049Z" fill="#333333"/>
<path d="M428.418 17.3953C425.264 14.0961 420.748 11.7293 415.372 11.7293C403.974 11.7293 394.655 21.1248 394.655 33.3892C394.655 45.5818 403.974 55.049 415.372 55.049C420.748 55.049 425.264 52.6822 428.418 49.383L429.041 53.2902C429.137 53.8902 429.654 54.3318 430.261 54.3318H437.075C437.758 54.3318 438.311 53.7783 438.311 53.0955V13.6828C438.311 13 437.758 12.4465 437.075 12.4465H430.261C429.654 12.4465 429.137 12.8881 429.041 13.4882L428.418 17.3953ZM416.59 44.5777C410.282 44.5777 405.479 39.8441 405.479 33.3892C405.479 26.9342 410.282 22.2006 416.59 22.2006C422.899 22.2006 427.702 26.9342 427.702 33.3892C427.702 39.7724 422.899 44.5777 416.59 44.5777Z" fill="#333333"/>
<path d="M474.343 44.8883C473.968 44.2335 473.108 44.0848 472.448 44.4516C471.508 44.9743 470.506 45.2232 469.043 45.2232C466.175 45.2232 464.526 43.4301 464.526 40.4178V22.2724H474.474C475.156 22.2724 475.709 21.7189 475.709 21.0361V13.6828C475.709 13 475.156 12.4465 474.474 12.4465H464.598V5.17519C464.598 4.40478 463.901 3.82202 463.144 3.9585L454.862 5.44992C454.274 5.55591 453.845 6.06833 453.845 6.66661V12.4465H449.059C448.377 12.4465 447.824 13 447.824 13.6828V21.0361C447.824 21.7189 448.377 22.2724 449.059 22.2724H453.845L453.774 41.0633C453.774 49.7416 459.007 55.049 467.824 55.049C471.735 55.049 475.016 54.1882 477.512 52.518C478.017 52.1799 478.139 51.5049 477.836 50.9775L474.343 44.8883Z" fill="#333333"/>
</svg>
