<svg width="458" height="503" viewBox="0 0 458 503" fill="none" xmlns="http://www.w3.org/2000/svg">
<g filter="url(#filter0_d_3923_11961)">
<path d="M22 8H436V467H22V8Z" fill="#F2F2F2"/>
</g>
<path fill-rule="evenodd" clip-rule="evenodd" d="M260.667 196.436C255.201 196.436 250.771 200.867 250.771 206.332C250.771 211.797 255.201 216.228 260.667 216.228C266.132 216.228 270.562 211.797 270.562 206.332C270.562 200.867 266.132 196.436 260.667 196.436ZM238.896 206.332C238.896 194.308 248.643 184.561 260.667 184.561C272.69 184.561 282.437 194.308 282.437 206.332C282.437 218.356 272.69 228.103 260.667 228.103C248.643 228.103 238.896 218.356 238.896 206.332Z" fill="#E3E3E3"/>
<path fill-rule="evenodd" clip-rule="evenodd" d="M228.546 152.895H229.454C247.729 152.894 262.051 152.894 273.225 154.397C284.662 155.934 293.688 159.143 300.771 166.227C307.855 173.311 311.064 182.336 312.602 193.774C314.104 204.948 314.104 219.27 314.104 237.545V238.453C314.104 256.728 314.104 271.049 312.602 282.224C311.064 293.661 307.855 302.686 300.771 309.77C293.688 316.854 284.662 320.063 273.225 321.601C262.051 323.103 247.729 323.103 229.454 323.103H228.546C210.271 323.103 195.949 323.103 184.775 321.601C173.338 320.063 164.312 316.854 157.229 309.77C150.145 302.686 146.936 293.661 145.398 282.224C143.896 271.049 143.896 256.728 143.896 238.453V237.544C143.896 219.27 143.896 204.948 145.398 193.774C146.936 182.336 150.145 173.311 157.229 166.227C164.312 159.143 173.338 155.934 184.775 154.397C195.949 152.894 210.271 152.894 228.546 152.895ZM165.625 301.373C161.116 296.863 158.528 290.762 157.167 280.641C155.952 271.604 155.794 260.075 155.774 244.65L167.61 234.293C172.472 230.039 179.799 230.283 184.367 234.851L218.327 268.812C225.808 276.292 237.584 277.312 246.24 271.229L248.6 269.57C255.394 264.796 264.586 265.349 270.758 270.904L296.278 293.871C296.556 294.121 296.851 294.34 297.158 294.528C295.879 297.227 294.302 299.446 292.374 301.373C287.865 305.883 281.763 308.471 271.642 309.832C261.351 311.215 247.828 311.228 229 311.228C210.172 311.228 196.649 311.215 186.357 309.832C176.237 308.471 170.135 305.883 165.625 301.373ZM186.357 166.166C176.237 167.526 170.135 170.114 165.625 174.624C161.116 179.134 158.528 185.235 157.167 195.356C156.018 203.902 155.815 214.677 155.779 228.867L159.79 225.356C169.357 216.986 183.775 217.466 192.764 226.454L226.724 260.415C230.125 263.815 235.477 264.279 239.412 261.514L241.772 259.855C253.096 251.897 268.415 252.819 278.702 262.077L300.663 281.842C300.722 281.448 300.778 281.048 300.833 280.641C302.217 270.35 302.229 256.826 302.229 237.999C302.229 219.171 302.217 205.648 300.833 195.356C299.472 185.235 296.884 179.134 292.374 174.624C287.865 170.114 281.763 167.526 271.642 166.166C261.351 164.782 247.828 164.77 229 164.77C210.172 164.77 196.649 164.782 186.357 166.166Z" fill="#E3E3E3"/>
<defs>
<filter id="filter0_d_3923_11961" x="0" y="0" width="458" height="503" filterUnits="userSpaceOnUse" color-interpolation-filters="sRGB">
<feFlood flood-opacity="0" result="BackgroundImageFix"/>
<feColorMatrix in="SourceAlpha" type="matrix" values="0 0 0 0 0 0 0 0 0 0 0 0 0 0 0 0 0 0 127 0" result="hardAlpha"/>
<feOffset dy="14"/>
<feGaussianBlur stdDeviation="11"/>
<feComposite in2="hardAlpha" operator="out"/>
<feColorMatrix type="matrix" values="0 0 0 0 0 0 0 0 0 0 0 0 0 0 0 0 0 0 0.08 0"/>
<feBlend mode="normal" in2="BackgroundImageFix" result="effect1_dropShadow_3923_11961"/>
<feBlend mode="normal" in="SourceGraphic" in2="effect1_dropShadow_3923_11961" result="shape"/>
</filter>
</defs>
</svg>
