<svg width="18" height="18" viewBox="0 0 18 18" fill="none" xmlns="http://www.w3.org/2000/svg">
<rect x="5.39844" y="4.5" width="7.2" height="7.2" fill="white"/>
<path d="M15.9412 10.4971C16.1946 10.3287 16.4091 10.1081 16.5701 9.85004C16.7312 9.59196 16.8351 9.3024 16.875 9.00081C16.8351 8.69922 16.7312 8.40966 16.5701 8.15159C16.4091 7.89351 16.1946 7.67289 15.9412 7.50456C15.739 7.33804 15.5644 7.14061 15.4237 6.91956C15.3942 6.63959 15.4209 6.35652 15.5025 6.08706C15.601 5.80655 15.6399 5.50858 15.6166 5.21219C15.5934 4.91581 15.5085 4.62753 15.3675 4.36581C15.1593 4.1514 14.9087 3.98266 14.6318 3.87033C14.3548 3.75799 14.0575 3.70452 13.7587 3.71331C13.4887 3.70124 13.2225 3.64421 12.9712 3.54456C12.7942 3.33914 12.6569 3.10263 12.5662 2.84706C12.4821 2.55635 12.3373 2.28675 12.1415 2.056C11.9457 1.82526 11.7032 1.6386 11.43 1.50831C11.1413 1.45671 10.8451 1.46608 10.5603 1.53583C10.2755 1.60558 10.0084 1.73416 9.77625 1.91331C9.54093 2.07345 9.27761 2.18794 9 2.25081C8.72239 2.18794 8.45907 2.07345 8.22375 1.91331C7.99192 1.73359 7.72488 1.60465 7.43996 1.53487C7.15505 1.4651 6.85864 1.45605 6.57 1.50831C6.29683 1.6386 6.05435 1.82526 5.8585 2.056C5.66266 2.28675 5.5179 2.55635 5.43375 2.84706C5.3431 3.10263 5.20577 3.33914 5.02875 3.54456C4.77746 3.64421 4.51131 3.70124 4.24125 3.71331C3.9425 3.70452 3.6452 3.75799 3.36823 3.87033C3.09127 3.98266 2.84072 4.1514 2.6325 4.36581C2.49148 4.62753 2.40663 4.91581 2.38339 5.21219C2.36014 5.50858 2.39901 5.80655 2.4975 6.08706C2.57905 6.35652 2.60583 6.63959 2.57625 6.91956C2.43565 7.14061 2.26099 7.33804 2.05875 7.50456C1.80536 7.67289 1.59093 7.89351 1.42987 8.15159C1.26881 8.40966 1.16486 8.69922 1.125 9.00081C1.16486 9.3024 1.26881 9.59196 1.42987 9.85004C1.59093 10.1081 1.80536 10.3287 2.05875 10.4971C2.26099 10.6636 2.43565 10.861 2.57625 11.0821C2.60583 11.362 2.57905 11.6451 2.4975 11.9146C2.39901 12.1951 2.36014 12.493 2.38339 12.7894C2.40663 13.0858 2.49148 13.3741 2.6325 13.6358C2.84072 13.8502 3.09127 14.019 3.36823 14.1313C3.6452 14.2436 3.9425 14.2971 4.24125 14.2883C4.51131 14.3004 4.77746 14.3574 5.02875 14.4571C5.20577 14.6625 5.3431 14.899 5.43375 15.1546C5.5179 15.4453 5.66266 15.7149 5.8585 15.9456C6.05435 16.1764 6.29683 16.363 6.57 16.4933C6.85865 16.5449 7.15491 16.5355 7.43973 16.4658C7.72454 16.396 7.99161 16.2675 8.22375 16.0883C8.45907 15.9282 8.72239 15.8137 9 15.7508C9.27761 15.8137 9.54093 15.9282 9.77625 16.0883C10.1602 16.3434 10.6003 16.5017 11.0588 16.5496C11.1849 16.553 11.3106 16.5339 11.43 16.4933C11.7032 16.363 11.9457 16.1764 12.1415 15.9456C12.3373 15.7149 12.4821 15.4453 12.5662 15.1546C12.6569 14.899 12.7942 14.6625 12.9712 14.4571C13.2225 14.3574 13.4887 14.3004 13.7587 14.2883C14.0575 14.2971 14.3548 14.2436 14.6318 14.1313C14.9087 14.019 15.1593 13.8502 15.3675 13.6358C15.5085 13.3741 15.5934 13.0858 15.6166 12.7894C15.6399 12.493 15.601 12.1951 15.5025 11.9146C15.4209 11.6451 15.3942 11.362 15.4237 11.0821C15.5644 10.861 15.739 10.6636 15.9412 10.4971ZM11.6438 7.89831L8.65125 10.9021C8.5429 11.0033 8.40015 11.0596 8.25187 11.0596C8.1036 11.0596 7.96085 11.0033 7.8525 10.9021L6.35625 9.39456C6.25356 9.28977 6.19637 9.14869 6.19711 9.00198C6.19785 8.85526 6.25646 8.71476 6.36021 8.61102C6.46395 8.50727 6.60445 8.44866 6.75117 8.44792C6.89788 8.44718 7.03896 8.50437 7.14375 8.60706L8.24625 9.70956L10.8562 7.09956C10.9615 6.99679 11.1029 6.93926 11.25 6.93926C11.3971 6.93926 11.5385 6.99679 11.6438 7.09956C11.6971 7.15147 11.7396 7.21356 11.7686 7.28216C11.7976 7.35075 11.8125 7.42447 11.8125 7.49894C11.8125 7.57341 11.7976 7.64712 11.7686 7.71572C11.7396 7.78431 11.6971 7.8464 11.6438 7.89831Z" fill="#4DAAFF"/>
</svg>
